<?xml version="1.0" standalone="no"?>
<!DOCTYPE svg PUBLIC "-//W3C//DTD SVG 20010904//EN"
 "http://www.w3.org/TR/2001/REC-SVG-20010904/DTD/svg10.dtd">
<svg version="1.0" xmlns="http://www.w3.org/2000/svg"
 width="700.000000pt" height="700.000000pt" viewBox="0 0 700.000000 700.000000"
 preserveAspectRatio="xMidYMid meet">
<metadata>
Created by potrace 1.11, written by Peter Selinger 2001-2013
</metadata>
<g transform="translate(0.000000,700.000000) scale(0.100000,-0.100000)"
fill="#000000" stroke="none">
<path d="M3387 6124 c-1 -1 -42 -5 -92 -8 -49 -4 -98 -9 -110 -11 -11 -2 -36
-7 -55 -10 -232 -34 -453 -138 -590 -276 -56 -57 -100 -107 -100 -115 0 -3 -9
-18 -19 -33 -69 -97 -158 -340 -176 -481 -4 -30 -8 -57 -10 -60 -2 -3 -6 -33
-10 -67 -3 -34 -8 -71 -10 -82 -4 -21 -15 -167 -21 -276 -5 -99 -4 -667 1
-710 3 -22 7 -60 11 -85 4 -37 18 -114 40 -218 16 -81 97 -295 155 -412 119
-240 264 -435 436 -585 75 -65 189 -149 217 -158 10 -3 13 -353 3 -363 -5 -5
-34 -10 -122 -19 -106 -11 -154 -17 -230 -29 -22 -4 -71 -11 -110 -17 -103
-17 -348 -74 -482 -113 -472 -139 -870 -341 -1162 -592 -308 -263 -484 -569
-507 -878 -6 -70 -4 -86 7 -87 8 0 1384 -1 3059 -1 l3045 -1 1 56 c4 198 -104
464 -274 676 -69 86 -222 233 -307 296 -22 17 -42 32 -45 35 -35 38 -266 178
-416 253 -106 53 -352 157 -404 171 -14 4 -34 11 -45 16 -29 13 -324 101 -360
107 -11 2 -69 14 -130 28 -60 13 -141 29 -180 35 -38 6 -82 13 -97 15 -16 3
-40 7 -55 9 -16 3 -53 7 -83 10 -164 17 -213 25 -220 36 -4 6 -4 266 0 340 0
8 23 29 52 45 28 17 56 35 62 40 6 6 29 23 51 40 62 46 206 192 268 271 145
185 256 393 332 619 43 128 58 184 71 264 3 18 8 43 10 55 2 11 7 44 10 71 3
28 7 61 10 75 10 57 3 683 -10 865 -57 770 -325 1127 -924 1229 -48 8 -118 18
-157 21 -67 7 -323 13 -328 9z"/>
</g>
</svg>
